<?xml version="1.0" standalone="no"?>
<!DOCTYPE svg PUBLIC "-//W3C//DTD SVG 20010904//EN"
 "http://www.w3.org/TR/2001/REC-SVG-20010904/DTD/svg10.dtd">
<svg version="1.0" xmlns="http://www.w3.org/2000/svg"
 width="1600.000000pt" height="1600.000000pt" viewBox="0 0 1600.000000 1600.000000"
 preserveAspectRatio="xMidYMid meet">

<g transform="translate(0.000000,1600.000000) scale(0.100000,-0.100000)"
fill="#000000" stroke="none">
<path d="M6971 10709 c-233 -41 -430 -223 -487 -449 -20 -77 -14 -223 11 -310
62 -208 246 -366 479 -411 77 -15 243 -12 311 6 229 58 410 235 455 446 18 83
9 260 -18 334 -61 167 -214 308 -397 365 -80 25 -265 35 -354 19z m305 -69
c170 -59 296 -211 330 -399 17 -96 17 -136 -1 -234 -19 -107 -60 -191 -133
-269 -198 -211 -530 -210 -724 1 -174 190 -187 525 -30 734 128 168 356 236
558 167z"/>
<path d="M8190 10710 c0 -42 -152 -1064 -160 -1081 -16 -29 -70 -59 -107 -59
-18 0 -33 -4 -33 -10 0 -6 65 -10 176 -10 114 0 173 3 169 10 -3 6 -17 10 -31
10 -31 0 -64 33 -64 64 0 14 18 183 40 377 22 194 40 361 40 371 0 37 16 15
72 -95 177 -346 395 -759 403 -758 4 0 19 33 31 73 22 68 392 817 405 818 6 0
99 -738 99 -786 0 -37 -27 -64 -63 -64 -15 0 -27 -4 -27 -10 0 -6 72 -10 195
-10 123 0 195 4 195 10 0 6 -15 10 -32 10 -44 0 -95 33 -113 72 -8 18 -26 114
-40 213 -14 99 -48 330 -75 514 -28 184 -50 338 -50 343 0 38 -52 -55 -261
-473 -132 -265 -243 -478 -247 -475 -4 4 -117 219 -253 478 -218 420 -269 508
-269 468z"/>
<path d="M7379 8693 c-6 -16 -76 -217 -156 -448 -80 -231 -149 -427 -153 -434
-5 -10 -53 123 -133 370 -69 211 -128 394 -132 406 -6 23 9 62 29 75 6 4 21 8
34 8 12 0 22 5 22 10 0 6 -72 10 -195 10 -123 0 -195 -4 -195 -10 0 -5 15 -10
33 -10 38 0 90 -29 113 -64 16 -25 44 -96 294 -751 68 -176 126 -324 130 -328
4 -5 13 22 19 60 7 37 18 89 26 114 15 54 244 698 254 717 4 7 55 -111 115
-265 220 -564 248 -633 256 -628 4 2 10 30 14 62 7 63 306 969 336 1018 23 38
69 65 108 65 17 0 34 5 37 10 4 7 -55 10 -169 10 -111 0 -176 -4 -176 -10 0
-5 11 -10 24 -10 28 0 56 -33 56 -67 0 -26 -208 -724 -219 -736 -7 -7 -51 98
-257 625 -49 126 -92 228 -97 228 -4 0 -12 -12 -18 -27z"/>
<path d="M8878 8709 c-242 -33 -455 -213 -514 -434 -18 -66 -17 -224 1 -303
38 -159 149 -298 300 -375 106 -53 189 -71 330 -71 116 0 138 3 210 28 116 40
181 80 260 160 275 279 196 753 -156 925 -46 22 -110 47 -142 55 -77 20 -207
27 -289 15z m243 -65 c88 -26 150 -63 215 -128 104 -104 154 -232 154 -396 0
-161 -45 -281 -142 -386 -110 -117 -215 -158 -387 -152 -97 3 -112 6 -181 39
-133 64 -217 160 -264 300 -104 313 51 647 335 723 73 20 203 20 270 0z"/>
<path d="M10398 8709 c-236 -32 -430 -186 -510 -405 -31 -85 -32 -260 0 -359
72 -228 261 -380 518 -416 255 -36 506 66 637 258 119 174 137 401 45 588 -97
198 -298 324 -543 339 -44 2 -110 0 -147 -5z m284 -78 c121 -47 238 -164 286
-286 29 -74 45 -198 37 -285 -18 -201 -122 -356 -295 -439 -69 -33 -84 -36
-181 -39 -169 -6 -275 34 -381 146 -94 98 -135 200 -145 353 -17 272 129 496
367 565 70 21 241 12 312 -15z"/>
<path d="M3395 8681 c3 -6 21 -11 40 -11 21 0 44 -9 62 -24 l28 -24 3 -495 3
-495 -24 -27 c-13 -16 -43 -32 -72 -40 -46 -13 -34 -14 155 -13 190 0 201 1
156 13 -27 8 -59 23 -70 35 -21 20 -21 28 -24 532 l-3 511 138 -6 c169 -6 231
-26 291 -91 70 -76 81 -199 26 -311 -52 -105 -143 -155 -287 -155 -82 -1 -90
-2 -73 -15 27 -20 117 -37 196 -36 97 1 171 31 236 95 72 73 97 142 92 258 -4
74 -8 93 -34 134 -39 63 -113 119 -194 146 -60 20 -90 22 -359 26 -208 2 -291
0 -286 -7z"/>
<path d="M4490 8680 c0 -5 15 -10 34 -10 44 0 83 -32 96 -78 6 -23 10 -209 10
-487 0 -428 -1 -452 -20 -482 -21 -34 -47 -52 -88 -59 -15 -3 -29 -7 -31 -10
-3 -2 170 -3 384 -2 l388 3 49 124 c51 131 59 181 15 94 -72 -140 -153 -172
-434 -173 l-143 0 0 506 0 506 31 29 c22 20 41 29 65 29 19 0 34 5 34 10 0 6
-72 10 -195 10 -123 0 -195 -4 -195 -10z"/>
<path d="M5250 8680 c0 -5 16 -10 35 -10 47 0 94 -21 127 -57 15 -15 109 -157
208 -313 l181 -285 -3 -192 c-3 -187 -4 -192 -27 -217 -13 -14 -45 -32 -70
-40 -43 -13 -33 -14 154 -14 186 0 197 1 155 14 -25 7 -55 25 -67 39 -22 25
-23 33 -23 223 l0 197 193 290 c164 248 199 295 241 323 34 22 60 32 87 32 22
0 39 5 39 10 0 6 -72 10 -195 10 -123 0 -195 -4 -195 -10 0 -5 13 -10 29 -10
32 0 61 -30 61 -63 0 -17 -267 -475 -295 -505 -9 -10 -24 9 -72 95 -33 59 -97
174 -142 255 -85 151 -90 168 -55 203 9 8 26 15 40 15 13 0 24 5 24 10 0 6
-78 10 -215 10 -137 0 -215 -4 -215 -10z"/>
<path d="M11360 8680 c0 -5 15 -10 34 -10 38 0 82 -35 91 -72 3 -12 4 -239 3
-502 l-3 -479 -28 -21 c-16 -12 -45 -26 -65 -33 -30 -9 44 -11 363 -9 354 2
406 4 455 20 91 30 170 75 228 129 115 108 162 228 162 410 0 182 -39 292
-142 403 -43 45 -79 72 -140 102 -132 66 -182 72 -598 72 -233 0 -360 -4 -360
-10z m698 -50 c255 -29 411 -222 412 -508 0 -212 -88 -385 -237 -465 -86 -46
-163 -57 -405 -57 l-218 0 0 513 c0 283 3 517 7 520 10 10 347 8 441 -3z"/>
<path d="M7960 6743 c0 -16 -4 -33 -8 -39 -9 -14 -295 -17 -367 -3 -31 6 -51
6 -53 0 -2 -5 -36 2 -75 15 -84 29 -132 29 -82 2 39 -22 29 -22 -67 3 -119 30
-115 18 12 -34 28 -12 -65 6 -104 20 -56 19 -58 7 -3 -17 26 -12 47 -23 47
-24 0 -4 -50 6 -90 19 -41 12 -9 -14 36 -30 46 -17 25 -19 -29 -4 -50 13 -59
4 -16 -15 21 -9 27 -15 16 -15 -36 -2 -5 -21 33 -21 21 0 42 -4 45 -10 3 -5
23 -10 43 -11 33 -1 34 -2 12 -9 -20 -6 -15 -8 25 -9 34 -1 45 -4 36 -10 -11
-7 -7 -13 20 -25 19 -8 59 -33 89 -55 49 -36 104 -56 176 -65 11 -1 26 -6 33
-10 6 -4 23 -5 37 -2 14 4 30 3 37 -1 12 -8 76 -15 130 -14 38 0 34 -17 -18
-88 -45 -61 -61 -116 -30 -105 9 4 15 1 15 -7 0 -8 6 -5 15 7 14 19 14 18 15
-3 0 -25 15 -31 23 -10 3 6 6 2 6 -10 1 -23 31 -34 31 -12 0 8 4 8 14 0 11
-10 17 -8 25 6 7 12 10 13 11 4 0 -9 8 -11 24 -7 15 4 26 1 29 -7 4 -9 8 -9
15 2 7 9 12 10 16 2 12 -18 26 -12 26 10 0 18 2 19 15 9 13 -10 15 -9 15 10 0
19 2 20 15 10 10 -8 15 -9 15 -2 0 6 7 9 15 6 28 -11 16 41 -18 82 -81 96 -84
113 -22 108 27 -2 45 1 45 7 0 6 11 8 29 4 17 -4 32 -2 36 5 4 7 19 9 35 5 16
-3 31 -2 35 4 3 6 19 11 35 11 16 0 32 5 35 10 4 6 15 8 24 5 25 -8 94 31 164
92 20 18 44 33 53 33 8 0 12 5 9 10 -3 6 5 10 19 10 13 0 32 3 41 6 13 5 14 8
3 15 -9 6 -4 9 15 9 15 0 27 5 27 10 0 6 18 10 39 10 39 0 70 19 34 21 -11 0
-5 6 16 15 43 19 34 28 -16 15 -58 -16 -63 -13 -14 9 55 25 49 35 -9 15 -57
-20 -63 -12 -10 15 57 29 46 34 -23 10 -79 -28 -103 -25 -38 5 30 14 51 28 48
31 -2 3 -44 -7 -92 -21 -86 -27 -126 -29 -63 -4 32 12 32 13 8 16 -14 2 -53
-7 -86 -20 -36 -14 -73 -23 -88 -20 -14 3 -45 1 -69 -5 -23 -6 -107 -12 -186
-14 l-143 -3 -19 38 c-16 30 -25 37 -49 37 -26 0 -30 -4 -30 -27z m727 -139
c-3 -3 -12 -4 -19 -1 -8 3 -5 6 6 6 11 1 17 -2 13 -5z"/>
<path d="M2670 5465 l0 -185 98 0 c156 0 202 23 202 100 0 39 -23 80 -46 80
-19 0 -18 10 7 36 27 29 29 86 4 113 -26 29 -76 41 -177 41 l-88 0 0 -185z
m193 144 c47 -13 66 -46 49 -84 -16 -34 -49 -45 -133 -45 l-69 0 0 70 0 70 58
0 c31 0 74 -5 95 -11z m48 -177 c15 -13 22 -30 22 -51 0 -53 -21 -65 -128 -69
l-95 -4 0 71 0 71 89 0 c71 0 93 -4 112 -18z"/>
<path d="M3103 5634 c-3 -8 -4 -71 -1 -139 4 -94 9 -130 22 -150 58 -89 214
-87 261 4 21 42 22 301 1 301 -11 0 -15 -27 -18 -133 -4 -154 -13 -179 -78
-198 -51 -15 -96 -3 -124 34 -18 25 -21 45 -24 163 -3 109 -6 134 -18 134 -8
0 -17 -7 -21 -16z"/>
<path d="M3567 5643 c-4 -3 -7 -87 -7 -185 0 -171 1 -178 20 -178 19 0 20 7
20 185 0 148 -3 185 -13 185 -8 0 -17 -3 -20 -7z"/>
<path d="M3766 5641 c-3 -4 -4 -86 -3 -182 l2 -174 123 -3 c103 -2 122 0 122
12 0 12 -19 16 -102 18 l-103 3 -3 168 c-2 136 -5 167 -17 167 -7 0 -16 -4
-19 -9z"/>
<path d="M4120 5465 l0 -187 108 4 c121 4 155 17 199 74 39 52 44 142 11 199
-38 65 -93 89 -215 93 l-103 4 0 -187z m227 128 c48 -22 73 -66 73 -128 0
-103 -56 -148 -185 -149 l-80 -1 -3 148 -3 147 82 0 c55 0 92 -5 116 -17z"/>
<path d="M4590 5465 c0 -178 1 -185 20 -185 19 0 20 7 20 185 0 178 -1 185
-20 185 -19 0 -20 -7 -20 -185z"/>
<path d="M4797 5644 c-4 -4 -7 -88 -7 -186 0 -171 1 -178 20 -178 18 0 20 8
22 147 l3 148 115 -147 c68 -87 122 -147 133 -148 16 0 17 15 17 185 0 177 -1
185 -20 185 -18 0 -20 -8 -22 -147 l-3 -147 -115 144 c-113 141 -129 157 -143
144z"/>
<path d="M5351 5639 c-138 -55 -163 -235 -45 -326 51 -39 144 -45 209 -13 l45
22 0 69 c0 62 -2 69 -20 69 -18 0 -20 -7 -20 -61 0 -60 0 -60 -37 -76 -71 -29
-165 2 -198 67 -19 37 -19 113 0 150 34 66 156 98 218 57 33 -21 47 -22 47 -2
0 38 -138 69 -199 44z"/>
<path d="M5890 5465 l0 -185 130 0 c109 0 130 2 130 15 0 12 -19 15 -110 15
l-110 0 0 70 0 70 95 0 c78 0 95 3 95 15 0 12 -17 15 -95 15 l-95 0 0 65 0 64
102 3 c89 3 103 5 106 21 3 15 -8 17 -122 17 l-126 0 0 -185z"/>
<path d="M6240 5645 c0 -3 27 -42 60 -87 33 -45 60 -86 60 -90 0 -5 -26 -44
-58 -86 -77 -101 -77 -102 -54 -102 13 0 41 28 80 81 l61 81 58 -81 c44 -61
64 -80 82 -81 17 0 21 3 14 13 -6 6 -38 50 -71 96 l-61 83 58 77 c76 100 76
101 52 101 -13 0 -37 -24 -73 -75 -29 -41 -55 -75 -58 -75 -3 0 -29 34 -58 75
-35 48 -61 75 -73 75 -10 0 -19 -2 -19 -5z"/>
<path d="M6730 5634 c-77 -33 -114 -97 -108 -186 7 -99 82 -168 182 -168 49 0
136 32 136 50 0 19 -21 20 -47 3 -36 -24 -130 -24 -167 0 -89 59 -88 214 1
261 54 27 97 29 148 7 51 -22 74 -19 53 6 -34 42 -133 55 -198 27z"/>
<path d="M7070 5465 l0 -185 130 0 c109 0 130 2 130 15 0 12 -19 15 -110 15
l-110 0 0 70 0 70 95 0 c78 0 95 3 95 15 0 12 -17 15 -95 15 l-95 0 0 65 0 64
102 3 c89 3 103 5 106 21 3 15 -8 17 -122 17 l-126 0 0 -185z"/>
<path d="M7460 5465 l0 -185 125 0 c104 0 125 2 125 15 0 12 -18 15 -105 15
l-105 0 0 170 c0 163 -1 170 -20 170 -19 0 -20 -7 -20 -185z"/>
<path d="M7817 5643 c-4 -3 -7 -87 -7 -185 l0 -178 125 0 c103 0 125 3 125 15
0 11 -20 15 -102 17 l-103 3 -3 168 c-2 129 -5 167 -16 167 -7 0 -16 -3 -19
-7z"/>
<path d="M8170 5465 l0 -185 125 0 c103 0 125 3 125 15 0 11 -21 15 -107 17
l-108 3 -3 68 -3 67 96 0 c77 0 95 3 95 15 0 11 -19 15 -92 17 l-93 3 -3 62
-3 62 108 3 c88 2 108 6 108 18 0 12 -22 15 -122 18 l-123 3 0 -186z"/>
<path d="M8560 5465 c0 -177 1 -185 20 -185 18 0 20 8 22 145 l3 145 114 -145
c63 -80 120 -145 127 -145 18 0 19 23 16 208 -2 134 -5 162 -17 162 -13 0 -15
-25 -15 -145 0 -80 -3 -145 -7 -144 -5 0 -59 65 -121 145 -63 79 -120 144
-128 144 -12 0 -14 -31 -14 -185z"/>
<path d="M9110 5634 c-75 -33 -110 -86 -110 -169 0 -111 74 -185 186 -185 49
0 102 18 122 43 22 26 -4 29 -49 6 -105 -53 -225 19 -224 135 1 58 24 100 72
132 37 24 121 24 157 0 28 -18 63 -15 50 5 -12 20 -88 49 -129 48 -22 0 -56
-7 -75 -15z"/>
<path d="M9450 5465 l0 -185 130 0 c108 0 130 3 130 15 0 12 -22 15 -112 17
l-113 3 0 65 0 65 93 3 c72 2 92 6 92 17 0 11 -20 15 -92 17 l-93 3 -3 62 -3
62 108 3 c93 3 108 5 111 21 3 15 -8 17 -122 17 l-126 0 0 -185z"/>
<path d="M9962 5633 c3 -15 16 -19 66 -21 l62 -3 0 -164 c0 -158 1 -165 20
-165 19 0 20 7 20 165 l0 164 62 3 c50 2 63 6 66 21 3 16 -9 17 -148 17 -139
0 -151 -1 -148 -17z"/>
<path d="M10435 5632 c-73 -35 -107 -90 -106 -174 0 -53 17 -91 58 -130 37
-35 73 -48 134 -48 143 0 230 139 168 268 -42 87 -164 127 -254 84z m169 -40
c37 -22 66 -76 66 -125 0 -135 -154 -205 -255 -116 -114 101 -27 283 125 262
19 -2 48 -12 64 -21z"/>
<path d="M10931 5639 c-83 -33 -125 -101 -119 -191 5 -66 38 -117 98 -150 48
-26 157 -22 197 8 25 19 28 28 31 88 3 61 1 66 -18 66 -18 0 -20 -6 -20 -61 0
-60 0 -60 -37 -76 -71 -29 -165 2 -198 67 -21 41 -19 118 5 157 10 18 34 40
52 49 44 23 127 24 162 1 26 -17 46 -16 46 4 0 6 -19 19 -42 29 -46 21 -118
25 -157 9z"/>
<path d="M11290 5465 l0 -185 130 0 c109 0 130 2 130 15 0 12 -19 15 -110 15
l-110 0 0 70 0 70 95 0 c78 0 95 3 95 15 0 12 -17 15 -95 15 l-95 0 0 65 0 64
102 3 c89 3 103 5 106 21 3 15 -8 17 -122 17 l-126 0 0 -185z"/>
<path d="M11625 5640 c-11 -18 6 -31 39 -30 17 1 43 2 59 1 l27 -1 0 -165 c0
-158 1 -165 20 -165 19 0 20 7 20 165 l0 164 62 3 c50 2 63 6 66 21 3 16 -9
17 -142 17 -86 0 -147 -4 -151 -10z"/>
<path d="M12025 5638 c-3 -7 -4 -89 -2 -183 2 -153 4 -170 20 -173 15 -3 17 6
17 82 l0 86 115 0 115 0 0 -85 c0 -78 2 -85 20 -85 19 0 20 7 20 186 0 171 -1
185 -17 182 -15 -3 -18 -16 -21 -86 l-3 -82 -114 0 -115 0 0 85 c0 70 -3 85
-15 85 -9 0 -18 -6 -20 -12z"/>
<path d="M12497 5643 c-4 -3 -7 -87 -7 -185 l0 -178 130 0 c109 0 130 2 130
15 0 12 -19 15 -110 15 l-110 0 0 70 0 70 95 0 c78 0 95 3 95 15 0 12 -17 15
-95 15 l-95 0 0 65 0 65 103 0 c57 0 106 3 110 6 3 3 3 12 0 20 -4 11 -31 14
-122 14 -65 0 -121 -3 -124 -7z"/>
<path d="M12890 5465 c0 -155 2 -185 15 -185 10 0 15 15 17 58 l3 57 62 3 63
3 42 -60 c30 -42 50 -60 66 -60 21 -1 19 3 -23 61 l-45 61 30 19 c58 34 69
127 22 179 -32 35 -79 48 -184 49 l-68 0 0 -185z m214 124 c20 -16 26 -29 26
-59 0 -21 -3 -46 -6 -55 -11 -28 -60 -45 -134 -45 l-70 0 0 90 0 90 79 0 c64
0 83 -4 105 -21z"/>
<path d="M13282 5308 c2 -15 10 -23 23 -23 30 0 27 39 -3 43 -20 3 -23 0 -20
-20z"/>
</g>
</svg>
